<?xml version="1.0" standalone="no"?>
<!DOCTYPE svg PUBLIC "-//W3C//DTD SVG 20010904//EN"
 "http://www.w3.org/TR/2001/REC-SVG-20010904/DTD/svg10.dtd">
<svg version="1.0" xmlns="http://www.w3.org/2000/svg"
 width="499.000000pt" height="480.000000pt" viewBox="0 0 499.000000 480.000000"
 preserveAspectRatio="xMidYMid meet">

<g transform="translate(0.000000,480.000000) scale(0.100000,-0.100000)"
fill="#6C6477" stroke="none">
<path d="M2347 4670 c-147 -26 -315 -100 -436 -190 -185 -138 -307 -314 -378
-547 -25 -81 -27 -101 -27 -268 0 -154 3 -191 22 -258 49 -176 134 -328 255
-454 l69 -72 -428 -4 c-365 -3 -438 -6 -486 -20 -291 -87 -515 -284 -621 -548
-64 -158 -62 -137 -62 -799 0 -602 0 -605 23 -685 95 -329 309 -547 637 -651
l90 -29 1515 0 1515 0 90 29 c321 101 532 313 632 633 l28 88 0 610 c0 668 2
646 -62 805 -89 220 -265 399 -489 497 -150 66 -148 66 -618 70 l-428 4 69 72
c121 126 206 278 255 454 19 66 22 105 22 253 0 148 -3 187 -22 253 -99 359
-361 626 -718 733 -76 22 -111 27 -244 30 -85 1 -177 -1 -203 -6z"/>
</g>
</svg>
